<svg width="16" height="17" viewBox="0 0 16 17" fill="none" xmlns="http://www.w3.org/2000/svg">
    <path d="M0.571914 5.12373C0.245916 4.55641 0.165475 3.88748 0.339058 3.25665C0.516875 2.63006 0.936015 2.09661 1.50757 1.78755C1.61765 1.72827 1.72349 1.669 1.82933 1.60973C2.93857 1.00007 4.33147 1.38534 4.97077 2.48188C6.21549 4.61145 8.02753 7.71055 8.02753 7.71055C8.02753 7.71055 9.83956 4.60722 11.0843 2.47764C11.3891 1.9569 11.8845 1.58009 12.4687 1.42768C13.053 1.27526 13.6711 1.35994 14.1918 1.66477C14.3189 1.73674 14.4416 1.81295 14.5686 1.88492C15.6948 2.54539 16.0801 3.98909 15.4366 5.12373C14.0818 7.51156 11.8125 11.5124 10.1486 14.4507C9.71679 15.2085 8.91661 15.6784 8.04446 15.6827C7.17231 15.6827 6.3679 15.2212 5.93183 14.4634C4.25103 11.5378 1.96481 7.54966 0.571914 5.12373Z" fill="#ED2132" fill-rule="evenodd"/>
    <path d="M4.83527 2.23619C4.83527 2.23619 4.26795 1.6604 3.23492 1.6604C2.20188 1.6604 1.16885 2.85855 1.91399 4.15407C2.65913 5.44536 3.78107 7.35901 4.10283 7.84589C4.42036 8.33277 4.98345 8.89586 6.07999 8.89586C7.17652 8.89586 8.03597 7.71464 8.03597 7.71464L4.8395 2.24042L4.83527 2.23619Z" fill="#A02C22" fill-rule="evenodd"/>
</svg>