<svg xmlns="http://www.w3.org/2000/svg" xmlns:xlink="http://www.w3.org/1999/xlink" width="1rem" height="1rem" preserveAspectRatio="xMidYMid meet" viewBox="0 0 24 24">
    <path id="coupon" fill="currentColor" fill-rule="evenodd" d="m19.963 2.973 1.256-1.254a.75.75 0 111.062 1.06l-1.256 1.256c.071.15.127.309.164.476l1.171 5.218a2.247 2.247 0 01-.605 2.083L15.48 18.08l-2.124-2.122a.75.75 0 10-1.062 1.06l2.123 2.122-2.703 2.7a2.254 
    2.254 0 01-3.186 0L2.16 15.478a2.248 2.248 0 010-3.182l2.703-2.7 2.123 2.12a.75.75 0 001.061-1.061l-2.122-2.12 6.277-6.27a2.254 2.254 0 012.078-.606l4.859 1.072-2.985 2.982a1.82 1.82 0 10.978.083l2.828-2.825.003.002ZM9.11 13.837l1.062 1.06a.75.75 0 
    101.062-1.06l-1.062-1.06a.75.75 0 00-1.062 1.06Z" clip-rule="evenodd"/>
</svg>