<svg xmlns="http://www.w3.org/2000/svg" xmlns:xlink="http://www.w3.org/1999/xlink" width="1em" height="1em" preserveAspectRatio="xMidYMid meet" viewBox="0 0 24 24">
    <path id="flashSale" fill="currentColor" d="M15.217 1.002a.439.439 0 00-.23.135c-.01.012-.033.024-.04.038L4.078 13.12a.269.269 0 00-.077.193c0 .152.117.27.269.27H9.8l-2.304 9.03v.059c-.004.017-.02.039-.02.058 0 .152.118.27.27.27.084 0 
    .16-.036.21-.096L18.924 10.34a.267.267 0 00.077-.193.266.266 0 00-.269-.27h-5.935l2.65-8.471a.246.246 0 00.02-.116c0-.152-.008-.219-.134-.27a.218.218 0 00-.115-.02Z"/>
</svg>