<svg xmlns="http://www.w3.org/2000/svg" xmlns:xlink="http://www.w3.org/1999/xlink" width="1em" height="1em" preserveAspectRatio="xMidYMid meet" viewBox="0 0 24 24">
    <g fill="currentColor">
        <path d="M5.774 6.309A4.538 4.538 0 0110.24 1c2.802 0 4.94 2.529 4.468 5.298a.644.644 0 11-1.27-.216 3.248 3.248 0 00-3.198-3.793 3.248 3.248 0 00-3.197 3.8.644.644 0 11-1.27.22Z"/>
        <path d="M14.521 10.48a1.934 1.934 0 012.578.86c1.277-.632 2.788.302 2.788 1.734v6.703A3.226 3.226 0 0116.664 23h-5.248a3.235 3.235 0 01-2.351-1.018L4.713 17.34a1.932 1.932 0 01.105-2.768c.77-.695 1.986-.642 2.713.12l.757.792v-9.93c0-1.09.903-1.963 1.992-1.932 1.04.028 1.885.907 1.885 1.96v3.946a1.935 1.935 0 012.356.952Z"/>
    </g>
</svg>