<svg xmlns="http://www.w3.org/2000/svg" xmlns:xlink="http://www.w3.org/1999/xlink" width="1em" height="1em" preserveAspectRatio="xMidYMid meet" viewBox="0 0 24 24"><path fill="#0065EE" d="M19.315 5.783a1.516 1.516 0 00-1.298-.76h-2.973v-.569c0-.385-.144-.755-.399-1.028A1.318 1.318 0 0013.684 3H2.064a1.005 1.005 0 00-.705.272 1.146 1.146 0 00-.353.707c-.03.306.063.612.256.84a.99.99 0 00.756.36h4.435a.944.944 0 01.545.156c.163.107.295.263.377.448a1.16 1.16 0 01-.066 1.046 1.01 1.01 0 01-.859.506H2.065a1.006 1.006 0 00-.709.276 1.136 1.136 0 00-.095 1.554.994.994 0 00.757.358h2.107c.258-.005.508.093.703.274.194.18.32.431.352.705.03.306-.063.612-.256.84a.989.989 0 01-.756.36h-2.04a1.006 1.006 0 00-.703.273c-.195.18-.32.431-.352.705-.03.306.063.612.256.84.193.23.468.36.756.36h.799v4.222c0 .41.152.803.424 1.094.271.29.64.453 1.024.453h.987a3.542 3.542 0 001.231 1.713A3.183 3.183 0 008.481 22a3.246 3.246 0 001.922-.65 3.604 3.604 0 001.238-1.701h2.75a3.542 3.542 0 001.231 1.713 3.186 3.186 0 001.931.638 3.246 3.246 0 001.922-.65 3.605 3.605 0 001.238-1.701h.84c.383 0 .752-.163 1.023-.453.271-.29.424-.684.424-1.094v-5.41c0-.47-.125-.928-.361-1.324l-3.324-5.585ZM8.48 19.745c-.334 0-.655-.143-.892-.396a1.4 1.4 0 01-.371-.953c.008-.354.144-.691.38-.94.235-.25.552-.393.883-.398.344-.016.68.12.928.374.248.255.39.607.39.975s-.141.72-.39.975c-.249.255-.584.39-.928.375v-.012Zm9.074 0a1.236 1.236 0 01-.897-.4 1.412 1.412 0 01-.373-.958c.005-.358.14-.7.378-.954.237-.253.557-.398.892-.404.337.001.66.145.897.4a1.413 1.413 0 01-.002 1.918 1.25 1.25 0 01-.897.407l.002-.01Zm2.433-7.861H15.51c-.155 0-.28-.135-.28-.3V7.637c0-.165.125-.3.28-.3h2.127c.096 0 .185.053.236.14l2.35 3.948a.318.318 0 01.007.303.278.278 0 01-.243.156Z"/></svg>