<svg xmlns="http://www.w3.org/2000/svg" xmlns:xlink="http://www.w3.org/1999/xlink" width="1em" height="1em" preserveAspectRatio="xMidYMid meet" viewBox="0 0 24 24"><path fill="#0065EE" fill-rule="evenodd" d="M15.5 2a1.5 1.5 0 000 3h3a.5.5 0 01.5.5v2a1.5 1.5 0 003 0v-2A3.5 3.5 0 0018.5 2h-3Zm-10 0A3.5 3.5 0 002 5.5v2a1.5 1.5 0 103 0v-2a.5.5 0 01.5-.5h3a1.5 1.5 0 100-3h-3ZM5 16.5a1.5 1.5 0 00-3 0v2A3.5 3.5 0 005.5 22h3a1.5 1.5 0 000-3h-3a.5.5 0 01-.5-.5v-2Zm17 0a1.5 1.5 0 00-3 0v2a.5.5 0 01-.5.5h-3a1.5 1.5 0 000 3h3a3.5 3.5 0 003.5-3.5v-2Zm-19.565-6C1.642 10.5 1 11.172 1 12s.642 1.5 1.435 1.5h19.13c.793 0 1.435-.672 1.435-1.5s-.642-1.5-1.435-1.5H2.435Z" clip-rule="evenodd"/></svg>