<svg xmlns="http://www.w3.org/2000/svg" xmlns:xlink="http://www.w3.org/1999/xlink" width="1em" height="1em" preserveAspectRatio="xMidYMid meet" viewBox="0 0 24 24"><path fill="#0065EE" fill-rule="evenodd" d="M1.414 10.586 3.5 8.5v-3a2 2 0 012-2h3l2.086-2.086a2 2 0 012.828 0L15.5 3.5h3a2 2 0 012 2v3l2.086 2.086a2 2 0 010 2.828L20.5 15.5v3a2 2 0 01-2 2h-3l-2.086 2.086a2 2 0 01-2.828 0L8.5 20.5h-3a2 2 0 01-2-2v-3l-2.086-2.086a2 2 0 010-2.828ZM7 13l3.244 3.244a1 1 0 001.46-.048l5.438-6.215a1.393 1.393 0 10-2.118-1.81L11 13l-2-2a1.414 1.414 0 10-2 2Z" clip-rule="evenodd"/></svg>