<svg xmlns="http://www.w3.org/2000/svg" xmlns:xlink="http://www.w3.org/1999/xlink" width="1em" height="1em" preserveAspectRatio="xMidYMid meet" viewBox="0 0 24 24"><path fill="#0065EE" d="M12.914 11.147c.238 0 .427.082.57.246.142.164.211.411.211.742h1.24c0-.537-.144-.975-.43-1.312-.285-.336-.68-.54-1.188-.61v-.897h-.686v.884c-.512.05-.923.223-1.232.52-.31.297-.464.681-.464 1.145 0 .27.045.503.133.7.091.195.217.364.379.51.162.145.355.272.58.384.227.112.497.224.807.337.312.113.532.237.663.37.13.134.195.313.195.54 0 .218-.073.39-.219.519-.145.128-.347.19-.596.19-.304 0-.536-.087-.699-.262-.162-.175-.24-.427-.24-.756h-1.241c0 .565.162 1.018.485 1.361.321.34.773.54 1.36.601v.82l.681-.001v-.823c.532-.052.949-.225 1.253-.519.303-.292.453-.672.453-1.14 0-.251-.037-.469-.12-.66a1.566 1.566 0 00-.347-.504 2.384 2.384 0 00-.56-.396 7.873 7.873 0 00-.842-.375c-.342-.134-.576-.262-.701-.389a.684.684 0 01-.188-.504c0-.226.065-.403.194-.53.133-.127.314-.19.549-.19Zm8.251-4.653H4.471c-1.011 0-1.835.794-1.835 1.769v9.968c0 .976.824 1.769 1.835 1.769h16.694C22.177 20 23 19.207 23 18.232V8.263c0-.975-.823-1.769-1.835-1.769Zm-8.348 11.93c-2.96 0-5.37-2.322-5.37-5.176 0-2.853 2.41-5.175 5.37-5.175 2.962 0 5.372 2.322 5.372 5.175 0 2.854-2.41 5.176-5.372 5.176ZM21.02 5.427c-.195-.957-1.16-1.583-2.152-1.393L9.741 5.756h11.346l-.067-.329ZM1.034 9.2l.834 4.1V8.263a2.4 2.4 0 01.227-1.02c-.767.326-1.228 1.13-1.06 1.956Z"/></svg>