<svg xmlns="http://www.w3.org/2000/svg" xmlns:xlink="http://www.w3.org/1999/xlink" width="1em" height="1em" preserveAspectRatio="xMidYMid meet" viewBox="0 0 24 24"><path fill="#0065EE" fill-rule="evenodd" d="M12 4.5a7.504 7.504 0 00-7.084 5.029 1.5 1.5 0 11-2.832-.989C3.513 4.443 7.41 1.5 12 1.5c3.577 0 6.733 1.788 8.629 4.516l.434-1.447a1.5 1.5 0 112.874.862l-1.5 5a1.5 1.5 0 01-1.731 1.04l-5-1a1.5 1.5 0 01.588-2.942l2.008.402A7.495 7.495 0 0012 4.5ZM5.698 16.07l2.008.4a1.5 1.5 0 00.588-2.94l-5-1a1.5 1.5 0 00-1.73 1.039l-1.5 5a1.5 1.5 0 102.873.862l.434-1.448A10.487 10.487 0 0012 22.5c4.574 0 8.461-2.924 9.902-7a1.5 1.5 0 00-2.828-1 7.504 7.504 0 01-13.376 1.57Z" clip-rule="evenodd"/></svg>