<svg xmlns="http://www.w3.org/2000/svg" xmlns:xlink="http://www.w3.org/1999/xlink" width="1em" height="1em" preserveAspectRatio="xMidYMid meet" viewBox="0 0 24 24"><path fill="#0065EE" fill-rule="evenodd" d="M9.532 20.136a9.538 9.538 0 01-.233-.375c-.548-.927-1.07-2.158-1.41-3.761H4.5a8.523 8.523 0 005.033 4.136Zm-5.9-6.636H7.55a22.123 22.123 0 010-3H3.632a8.552 8.552 0 000 3ZM4.498 8H7.89c.34-1.603.862-2.834 1.41-3.76.078-.132.156-.258.233-.376A8.523 8.523 0 004.498 8Zm9.97-4.136c.077.118.155.244.233.375.548.927 1.07 2.158 1.41 3.761h3.39a8.523 8.523 0 00-5.033-4.136Zm5.9 6.636H16.45a22.156 22.156 0 010 3h3.918a8.551 8.551 0 000-3Zm-.866 5.5H16.11c-.34 1.603-.862 2.834-1.41 3.76a9.634 9.634 0 01-.233.376A8.523 8.523 0 0019.502 16ZM23 12c0 6.075-4.925 11-11 11S1 18.075 1 12 5.925 1 12 1s11 4.925 11 11ZM12.549 5.51A6.414 6.414 0 0012 4.719c-.17.207-.357.469-.549.793-.349.59-.717 1.402-.995 2.489h3.088c-.278-1.087-.646-1.899-.995-2.49ZM10 12c0 .533.02 1.032.056 1.5h3.888c.036-.468.056-.967.056-1.5s-.02-1.032-.056-1.5h-3.888c-.036.468-.056.967-.056 1.5Zm.456 4c.278 1.087.646 1.899.995 2.49.192.323.38.585.549.792.17-.207.357-.469.549-.793.349-.59.717-1.402.995-2.489h-3.088Z" clip-rule="evenodd"/></svg>